<svg width="20" height="21" viewBox="0 0 20 21" fill="none" xmlns="http://www.w3.org/2000/svg">
<path d="M10 0.605957C4.48578 0.605957 0 5.09174 0 10.606C0 16.1202 4.48578 20.606 10 20.606C15.5142 20.606 20 16.1202 20 10.606C20 5.09174 15.5142 0.605957 10 0.605957Z" fill="#EC0016"/>
<path d="M10.7802 12.2371C10.7755 12.2943 10.7613 12.3458 10.7377 12.3915C10.7141 12.4373 10.6715 12.4773 10.61 12.5116C10.5533 12.5402 10.4729 12.5631 10.3689 12.5802C10.2696 12.5974 10.1467 12.606 10.0001 12.606C9.84881 12.606 9.72351 12.5974 9.62422 12.5802C9.52493 12.5631 9.44455 12.5402 9.38309 12.5116C9.32635 12.4773 9.28616 12.4373 9.26252 12.3915C9.23888 12.3458 9.22469 12.2943 9.21997 12.2371L8.4292 5.10917C8.4292 5.03483 8.44338 4.96907 8.47175 4.91189C8.50012 4.85471 8.54977 4.80896 8.62069 4.77465C8.69634 4.73462 8.79563 4.70603 8.91856 4.68887C9.04622 4.67172 9.81098 4.60596 10.0001 4.60596C10.1892 4.60596 11.1573 4.65742 11.2803 4.6803C11.4032 4.69745 11.5001 4.72604 11.571 4.76607C11.6467 4.80038 11.6987 4.84613 11.7271 4.90331C11.7602 4.95478 11.7767 5.01768 11.7767 5.09202L10.7802 12.2371ZM11.0001 15.3536C11.0001 15.5881 10.9836 15.7854 10.9505 15.9455C10.9221 16.1056 10.8677 16.2343 10.7873 16.3315C10.7117 16.4287 10.61 16.4973 10.4824 16.5373C10.3547 16.5831 10.194 16.606 10.0001 16.606C9.80625 16.606 9.64313 16.5831 9.51075 16.5373C9.38309 16.4973 9.28143 16.4287 9.20578 16.3315C9.13013 16.2343 9.07576 16.1056 9.04266 15.9455C9.01429 15.7854 9.00011 15.5881 9.00011 15.3536C9.00011 15.1135 9.01429 14.9133 9.04266 14.7532C9.07576 14.5874 9.13013 14.4558 9.20578 14.3586C9.28143 14.2557 9.38309 14.1842 9.51075 14.1442C9.64313 14.0985 9.80625 14.0756 10.0001 14.0756C10.194 14.0756 10.3547 14.0985 10.4824 14.1442C10.61 14.1842 10.7117 14.2557 10.7873 14.3586C10.8677 14.4558 10.9221 14.5874 10.9505 14.7532C10.9836 14.9133 11.0001 15.1135 11.0001 15.3536Z" fill="white"/>
</svg>
