<svg width="20" height="20" viewBox="0 0 20 20" fill="none" xmlns="http://www.w3.org/2000/svg">
<g id="17-document">
<mask id="mask0_288_943" style="mask-type:alpha" maskUnits="userSpaceOnUse" x="3" y="1" width="14" height="18">
<g id="path-2-inside-1_73_152">
<path id="Vector" fill-rule="evenodd" clip-rule="evenodd" d="M12.4088 2.38795C11.9523 1.9314 11.3368 1.66865 10.6912 1.66713C10.4728 1.66663 10.2427 1.66663 9.99992 1.66663C7.66637 1.66663 6.49959 1.66663 5.60829 2.12077C4.82429 2.52023 4.18686 3.15766 3.78739 3.94167C3.33325 4.83297 3.33325 5.99974 3.33325 8.33329V11.6666C3.33325 14.0002 3.33325 15.167 3.78739 16.0583C4.18686 16.8423 4.82429 17.4797 5.60829 17.8791C6.49959 18.3333 7.66637 18.3333 9.99992 18.3333C12.3335 18.3333 13.5003 18.3333 14.3915 17.8791C15.1756 17.4797 15.813 16.8423 16.2124 16.0583C16.6666 15.167 16.6666 14.0002 16.6666 11.6666V8.33329C16.6666 8.09058 16.6666 7.86049 16.6661 7.64203C16.6646 6.99637 16.4018 6.38089 15.9453 5.92435L12.4088 2.38795Z" fill="white"/>
</g>
</mask>
<g mask="url(#mask0_288_943)">
<path id="Vector_2" d="M5.60829 2.12077L6.17578 3.23453L5.60829 2.12077ZM3.78739 3.94167L4.90115 4.50915L3.78739 3.94167ZM3.78739 16.0583L2.67364 16.6257L3.78739 16.0583ZM5.60829 17.8791L6.17578 16.7654L5.60829 17.8791ZM14.3915 17.8791L13.8241 16.7654L14.3915 17.8791ZM16.2124 16.0583L15.0987 15.4908L16.2124 16.0583ZM15.9453 5.92435L15.0614 6.80824L15.9453 5.92435ZM9.99992 2.91663C10.2429 2.91663 10.4715 2.91663 10.6883 2.91714L10.6941 0.417141C10.4739 0.416626 10.2423 0.416627 9.99992 0.416627V2.91663ZM6.17578 3.23453C6.41584 3.1122 6.74755 3.01969 7.36505 2.96924C7.99714 2.9176 8.8125 2.91663 9.99992 2.91663V0.416627C8.85375 0.416627 7.91898 0.415654 7.16147 0.477546C6.38937 0.540629 5.69204 0.675188 5.0408 1.00701L6.17578 3.23453ZM4.90115 4.50915C5.18078 3.96035 5.62698 3.51415 6.17578 3.23453L5.0408 1.00701C4.02159 1.52632 3.19294 2.35497 2.67364 3.37418L4.90115 4.50915ZM4.58325 8.33329C4.58325 7.14589 4.58423 6.33052 4.63587 5.69843C4.68632 5.08093 4.77883 4.74922 4.90115 4.50915L2.67364 3.37418C2.34181 4.02541 2.20725 4.72274 2.14417 5.49484C2.08228 6.25235 2.08325 7.18714 2.08325 8.33329H4.58325ZM4.58325 11.6666V8.33329H2.08325V11.6666H4.58325ZM4.90115 15.4908C4.77883 15.2507 4.68632 14.919 4.63587 14.3015C4.58423 13.6694 4.58325 12.854 4.58325 11.6666H2.08325C2.08325 12.8128 2.08228 13.7475 2.14417 14.505C2.20725 15.2772 2.34181 15.9745 2.67364 16.6257L4.90115 15.4908ZM6.17578 16.7654C5.62698 16.4858 5.18078 16.0395 4.90115 15.4908L2.67364 16.6257C3.19294 17.645 4.02159 18.4736 5.0408 18.9929L6.17578 16.7654ZM9.99992 17.0833C8.8125 17.0833 7.99714 17.0823 7.36505 17.0307C6.74755 16.9802 6.41584 16.8877 6.17578 16.7654L5.0408 18.9929C5.69204 19.3247 6.38937 19.4593 7.16147 19.5224C7.91898 19.5843 8.85375 19.5833 9.99992 19.5833V17.0833ZM13.8241 16.7654C13.584 16.8877 13.2523 16.9802 12.6348 17.0307C12.0027 17.0823 11.1873 17.0833 9.99992 17.0833V19.5833C11.1461 19.5833 12.0808 19.5843 12.8383 19.5224C13.6105 19.4593 14.3078 19.3247 14.959 18.9929L13.8241 16.7654ZM15.0987 15.4908C14.8191 16.0395 14.3728 16.4858 13.8241 16.7654L14.959 18.9929C15.9783 18.4736 16.8069 17.645 17.3262 16.6257L15.0987 15.4908ZM15.4166 11.6666C15.4166 12.854 15.4156 13.6694 15.364 14.3015C15.3135 14.919 15.221 15.2507 15.0987 15.4908L17.3262 16.6257C17.658 15.9745 17.7926 15.2772 17.8557 14.505C17.9176 13.7475 17.9166 12.8128 17.9166 11.6666H15.4166ZM15.4166 8.33329V11.6666H17.9166V8.33329H15.4166ZM15.4161 7.64494C15.4166 7.86168 15.4166 8.09026 15.4166 8.33329H17.9166C17.9166 8.0909 17.9166 7.8593 17.9161 7.6391L15.4161 7.64494ZM16.8292 5.04046L13.2928 1.50406L11.525 3.27184L15.0614 6.80824L16.8292 5.04046ZM17.9161 7.6391C17.9138 6.65383 17.5128 5.72419 16.8292 5.04046L15.0614 6.80824C15.2908 7.03759 15.4153 7.33892 15.4161 7.64494L17.9161 7.6391ZM10.6883 2.91714C10.9943 2.91785 11.2956 3.04247 11.525 3.27184L13.2928 1.50406C12.609 0.820339 11.6794 0.419446 10.6941 0.417141L10.6883 2.91714Z" fill="#2B5DA8"/>
<path id="Vector_3" d="M11.25 2.08337V4.58337C11.25 5.96408 12.3692 7.08337 13.75 7.08337H15.8333" stroke="#2B5DA8" stroke-width="1.5"/>
</g>
</g>
</svg>
