<svg width="118" height="171" viewBox="0 0 118 171" fill="none" xmlns="http://www.w3.org/2000/svg">
<g opacity="0.2">
<path d="M99.9654 95.5462C94.8128 106.896 87.8311 118.204 80.6921 128.357C73.9199 137.929 66.6786 147.098 58.9998 155.824C51.3207 147.098 44.0795 137.929 37.3074 128.357C30.1684 118.204 23.1868 106.896 18.0341 95.5462C12.8224 84.0786 9.83309 73.3376 9.83309 64.125C9.83309 49.9525 15.0131 36.3605 24.2337 26.339C33.4542 16.3175 45.9599 10.6875 58.9998 10.6875C72.0396 10.6875 84.5453 16.3175 93.7658 26.339C102.986 36.3605 108.166 49.9525 108.166 64.125C108.166 73.3376 105.167 84.0786 99.9654 95.5462ZM58.9998 171C58.9998 171 118 110.231 118 64.125C118 47.118 111.784 30.8075 100.719 18.7818C89.6544 6.75601 74.6475 0 58.9998 0C43.352 0 28.3451 6.75601 17.2805 18.7818C6.21581 30.8075 -0.000243907 47.118 -0.000244141 64.125C-0.000244141 110.231 58.9998 171 58.9998 171Z" fill="url(#paint0_linear_2_3810)"/>
<path d="M58.9998 85.5C53.7838 85.5 48.7815 83.248 45.0933 79.2394C41.4051 75.2308 39.3331 69.794 39.3331 64.125C39.3331 58.456 41.4051 53.0192 45.0933 49.0106C48.7815 45.002 53.7838 42.75 58.9998 42.75C64.2157 42.75 69.218 45.002 72.9062 49.0106C76.5944 53.0192 78.6664 58.456 78.6664 64.125C78.6664 69.794 76.5944 75.2308 72.9062 79.2394C69.218 83.248 64.2157 85.5 58.9998 85.5ZM58.9998 96.1875C66.8236 96.1875 74.3271 92.8095 79.8594 86.7966C85.3917 80.7837 88.4998 72.6285 88.4998 64.125C88.4998 55.6215 85.3917 47.4663 79.8594 41.4534C74.3271 35.4405 66.8236 32.0625 58.9998 32.0625C51.1759 32.0625 43.6724 35.4405 38.1401 41.4534C32.6078 47.4663 29.4998 55.6215 29.4998 64.125C29.4998 72.6285 32.6078 80.7837 38.1401 86.7966C43.6724 92.8095 51.1759 96.1875 58.9998 96.1875Z" fill="url(#paint1_linear_2_3810)"/>
</g>
<defs>
<linearGradient id="paint0_linear_2_3810" x1="58.9998" y1="0" x2="58.9998" y2="171" gradientUnits="userSpaceOnUse">
<stop stop-color="white"/>
<stop offset="0.859375" stop-color="white" stop-opacity="0"/>
<stop offset="1" stop-color="white" stop-opacity="0"/>
</linearGradient>
<linearGradient id="paint1_linear_2_3810" x1="58.9998" y1="32.0625" x2="58.9998" y2="126.5" gradientUnits="userSpaceOnUse">
<stop stop-color="white"/>
<stop offset="0.859375" stop-color="white" stop-opacity="0"/>
<stop offset="1" stop-color="white" stop-opacity="0"/>
</linearGradient>
</defs>
</svg>
